<?xml version="1.0" encoding="UTF-8"?>
<svg width="22px" height="16px" viewBox="0 0 22 16" version="1.1" xmlns="http://www.w3.org/2000/svg" xmlns:xlink="http://www.w3.org/1999/xlink">
    <!-- Generator: Sketch 62 (91390) - https://sketch.com -->
    <title>Path</title>
    <desc>Created with Sketch.</desc>
    <g id="Page-1" stroke="none" stroke-width="1" fill="none" fill-rule="evenodd">
        <g id="v17_B" transform="translate(-850.000000, -1921.000000)" fill="#01B289" fill-rule="nonzero">
            <g id="03.Features" transform="translate(248.000000, 1675.000000)">
                <g id="Protect-Your-Business" transform="translate(419.000000, 14.000000)">
                    <g id="Explore" transform="translate(0.000000, 230.265758)">
                        <path d="M204.796309,9.10359115 L198.685197,2.02024531 C198.418623,1.65011198 197.869001,1.65133698 197.530727,1.95405365 C197.192453,2.25677031 197.166664,2.79464115 197.462971,3.11399531 L202.390059,8.81713281 L183.814815,8.81713281 C183.364833,8.81713281 183,9.19021615 183,9.65046615 C183,10.1107161 183.364833,10.4837995 183.814815,10.4837995 L202.390059,10.4837995 L197.462975,16.1869245 C197.139657,16.5062578 197.230582,17.0539245 197.56886,17.3566328 C197.907135,17.6593411 198.418627,17.6377578 198.685201,17.2806745 L204.796313,10.1973411 C204.959646,10.0163828 204.990809,9.82000781 205,9.65046615 C204.984726,9.47313281 204.912171,9.23638281 204.796309,9.10359115 Z" id="Path"></path>
                    </g>
                </g>
            </g>
        </g>
    </g>
</svg>