<?xml version="1.0" encoding="UTF-8"?>
<svg width="20px" height="23px" viewBox="0 0 20 23" version="1.1" xmlns="http://www.w3.org/2000/svg" xmlns:xlink="http://www.w3.org/1999/xlink">
    <!-- Generator: Sketch 61.1 (89650) - https://sketch.com -->
    <title>icon 6</title>
    <desc>Created with Sketch.</desc>
    <g id="Page-1" stroke="none" stroke-width="1" fill="none" fill-rule="evenodd">
        <g id="Icons" transform="translate(-178.000000, -246.000000)" fill="#4C4D5F" fill-rule="nonzero">
            <g id="icon-6" transform="translate(178.000000, 246.000000)">
                <path d="M14.2111111,1.76979524 L12.7955556,1.76979524 C12.1944444,-0.589347619 7.74666667,-0.590442857 7.14611111,1.76979524 L5.69166667,1.76979524 C4.92555556,1.76979524 4.30277778,2.38422381 4.30277778,3.13884286 L4.30277778,3.79981905 L2.22222222,3.79981905 C0.996666667,3.79981905 0,4.78224762 0,5.99029524 L0,20.7760095 C0,21.9840571 0.996666667,22.9664857 2.22222222,22.9664857 L17.7777778,22.9664857 C19.0033333,22.9664857 20,21.9840571 20,20.7760095 L20,5.99029524 C20,4.78224762 19.0033333,3.79981905 17.7777778,3.79981905 L15.6,3.79981905 L15.6,3.13884286 C15.6,2.38422381 14.9772222,1.76979524 14.2111111,1.76979524 Z M17.7777778,4.89505714 C18.3905556,4.89505714 18.8888889,5.38627143 18.8888889,5.99029524 L18.8888889,20.7760095 C18.8888889,21.3800333 18.3905556,21.8712476 17.7777778,21.8712476 L2.22222222,21.8712476 C1.60944444,21.8712476 1.11111111,21.3800333 1.11111111,20.7760095 L1.11111111,5.99029524 C1.11111111,5.38627143 1.60944444,4.89505714 2.22222222,4.89505714 L4.30277778,4.89505714 L4.30277778,5.1639381 C4.30277778,5.91855714 4.92555556,6.53298571 5.69166667,6.53298571 L14.2111111,6.53298571 C14.9772222,6.53298571 15.6,5.91855714 15.6,5.1639381 L15.6,4.89505714 L17.7777778,4.89505714 Z M11.7237899,9.21607977 L9.25995141,11.6447206 L8.27621005,10.6742959 C7.98392824,10.3861895 7.51074566,10.3861895 7.21921136,10.673559 C6.92692955,10.9616654 6.92692955,11.4280882 7.21921136,11.7161946 L8.73145207,13.2075687 C8.80396188,13.2790426 8.88843207,13.3328323 8.9773874,13.3689377 C9.06783779,13.4050431 9.16426836,13.4234642 9.25995141,13.4234642 C9.45131751,13.4234642 9.64268361,13.3512534 9.78845076,13.2075687 L12.7807886,10.2579785 C13.0730705,9.96987212 13.0730705,9.50418613 12.7807886,9.21607977 C12.4885068,8.92797341 12.0160718,8.92797341 11.7237899,9.21607977 Z M13.2222222,17.6569619 L6.55555556,17.6569619 C6.24833333,17.6569619 6,17.9022952 6,18.204581 C6,18.5068667 6.24833333,18.7522 6.55555556,18.7522 L13.2222222,18.7522 C13.5294444,18.7522 13.7777778,18.5068667 13.7777778,18.204581 C13.7777778,17.9022952 13.5294444,17.6569619 13.2222222,17.6569619 Z M5.41388889,3.13884286 C5.41388889,2.9904381 5.54111111,2.86503333 5.69166667,2.86503333 L7.635,2.86503333 C7.94222222,2.86503333 8.19055556,2.6197 8.19055556,2.31741429 C8.19055556,1.46148571 9.11333333,1.07158095 9.97055556,1.07158095 C10.8283333,1.07158095 11.7511111,1.46148571 11.7511111,2.31741429 C11.7511111,2.6197 12,2.86503333 12.3066667,2.86503333 L14.2111111,2.86503333 C14.3622222,2.86503333 14.4888889,2.9904381 14.4888889,3.13884286 L14.4888889,4.13331905 C14.4605556,4.19903333 14.4444444,4.27131905 14.4444444,4.3474381 C14.4444444,4.42355714 14.4605556,4.49584286 14.4888889,4.56155714 L14.4888889,5.1639381 C14.4888889,5.31234286 14.3622222,5.43774762 14.2111111,5.43774762 L5.69166667,5.43774762 C5.54111111,5.43774762 5.41388889,5.31234286 5.41388889,5.1639381 L5.41388889,3.13884286 Z" id="Shape"></path>
            </g>
        </g>
    </g>
</svg>