<?xml version="1.0" encoding="UTF-8"?>
<svg width="18px" height="25px" viewBox="0 0 18 25" version="1.1" xmlns="http://www.w3.org/2000/svg" xmlns:xlink="http://www.w3.org/1999/xlink">
    <!-- Generator: Sketch 61.1 (89650) - https://sketch.com -->
    <title>icon 5</title>
    <desc>Created with Sketch.</desc>
    <g id="Page-1" stroke="none" stroke-width="1" fill="none" fill-rule="evenodd">
        <g id="Icons" transform="translate(-361.000000, -245.000000)" fill="#4C4D5F" fill-rule="nonzero">
            <g id="icon-5" transform="translate(361.000000, 245.000000)">
                <path d="M15.7482098,0 L2.2326946,0 C1.0559276,0 0.0981633736,0.924702774 0,2.09421546 C0,2.09421546 0,8.97070765 0,22.723692 C0,24.2602042 0.918834072,25 2.2326946,25 L15.7482098,25 C16.9897228,25 18,23.974404 18,22.7133906 L18,2.28660938 C18,1.02559597 16.9900212,0 15.7482098,0 Z M17.0526316,22.8769964 C17.0526316,23.5172953 16.5369608,24.0384615 15.9027346,24.0384615 L2.09726544,24.0384615 C1.46303917,24.0384615 0.947368421,23.5172953 0.947368421,22.8769964 L0.947368421,2.12300356 C0.947368421,1.48239691 1.46303917,0.961538462 2.09726544,0.961538462 L15.9027346,0.961538462 C16.5369608,0.961538462 17.0526316,1.48239691 17.0526316,2.12300356 L17.0526316,22.8769964 Z M12.0090276,18.0854742 C12.1777466,18.0854742 12.3157895,18.2220718 12.3157895,18.3890244 L12.3157895,18.927219 C12.3157895,19.0941716 12.1777466,19.2307692 12.0090276,19.2307692 L5.99097244,19.2307692 C5.82225339,19.2307692 5.68421053,19.0941716 5.68421053,18.927219 L5.68421053,18.3890244 C5.68421053,18.2220718 5.82225339,18.0854742 5.99097244,18.0854742 L12.0090276,18.0854742 Z M8.67760979,4.84614331 C8.85107284,4.8443906 9.01786877,4.9114729 9.13990195,5.03210367 C9.26193513,5.15273444 9.32878284,5.31661073 9.32517728,5.48630375 L9.32517728,5.48630375 L9.32517728,6.32238776 L11.0342213,6.32238776 C11.2653428,6.31920031 11.4803156,6.43801593 11.596827,6.63334026 C11.7133384,6.82866458 11.7133384,7.07023799 11.596827,7.26556232 C11.4803156,7.46088664 11.2653428,7.57970226 11.0342213,7.57651482 L11.0342213,7.57651482 L8.04339435,7.57651482 C7.5879135,7.57651482 7.34012448,7.68943376 7.19554815,7.82472781 C7.05097182,7.96001977 6.97524177,8.14653759 6.97524177,8.41259883 C6.97524177,8.58284707 7.05252077,8.74379064 7.32906722,8.9220869 C7.60561367,9.10038524 8.07558457,9.24868283 8.68428581,9.24868283 C9.49390605,9.24865565 10.1966329,9.42714427 10.7404795,9.77776716 C11.2843259,10.1283901 11.6751128,10.6985717 11.6751128,11.3389002 C11.6751128,11.9373262 11.375678,12.4922399 10.9073783,12.8608302 C10.4871161,13.1916164 9.94018206,13.3860944 9.32517728,13.4225603 L9.32517728,13.4225603 L9.32517728,14.2651869 C9.32844771,14.4913294 9.2070148,14.7016766 9.00737798,14.8156817 C8.80774116,14.9296868 8.56083047,14.9296868 8.36119365,14.8156817 C8.16155683,14.7016766 8.04012392,14.4913294 8.04339435,14.2651869 L8.04339435,14.2651869 L8.04339435,13.429105 L6.3343501,13.429105 C6.10319356,13.432346 5.88816441,13.3135426 5.77161933,13.1181969 C5.65507426,12.9228512 5.65507426,12.6812359 5.77161933,12.4858901 C5.88816441,12.2905444 6.10319356,12.1717411 6.3343501,12.1749821 L6.3343501,12.1749821 L9.11154672,12.1749821 C9.56701538,12.1749821 9.90252904,12.0413712 10.1062638,11.8810382 C10.3099986,11.7206843 10.3933299,11.5510466 10.3933299,11.3389002 C10.3933299,11.1686561 10.3160459,11.0011512 10.0395044,10.822857 C9.76296266,10.6445838 9.2929815,10.5027973 8.68428581,10.5028183 C7.87466922,10.5028183 7.17193404,10.3178331 6.62809214,9.96719348 C6.08425025,9.61656222 5.69345864,9.05294189 5.69345864,8.41259883 C5.69345864,7.8680792 5.89368008,7.3169564 6.31432223,6.92332294 C6.73496459,6.52969158 7.34166339,6.32238776 8.04339435,6.32238776 L8.04339435,6.32238776 L8.04339435,5.48630375 C8.03983734,5.31887639 8.10486811,5.15701162 8.22399855,5.03677101 C8.34312899,4.91653041 8.50646232,4.84790299 8.67760979,4.84614331 Z" id="Shape"></path>
            </g>
        </g>
    </g>
</svg>