<?xml version="1.0" encoding="UTF-8"?>
<svg width="94px" height="81px" viewBox="0 0 94 81" version="1.1" xmlns="http://www.w3.org/2000/svg" xmlns:xlink="http://www.w3.org/1999/xlink">
    <!-- Generator: Sketch 63.1 (92452) - https://sketch.com -->
    <title>projects</title>
    <desc>Created with Sketch.</desc>
    <g id="Page-1" stroke="none" stroke-width="1" fill="none" fill-rule="evenodd">
        <g id="projects" transform="translate(0.000000, -0.440945)" fill="#4C4D5F" fill-rule="nonzero">
            <path d="M15.716797,0.440944787 C12.427399,0.440944787 9.716797,3.15154679 9.716797,6.44094479 L9.716797,12.4448508 L6.2714844,12.4448508 C2.9820712,12.4448508 0.2695312,15.1495928 0.2695312,18.4389918 L0.8320312,75.4702418 C0.8837612,78.7208248 3.542459,81.4428978 6.8320312,81.4428978 L78.28125,81.4428978 C81.570664,81.4428978 84.283203,78.7303428 84.283203,75.4409448 L84.283203,69.4409448 L87.728516,69.4409448 C91.017914,69.4409448 93.726562,66.7292098 93.726562,63.4409448 L93.726562,16.4409448 C93.726562,13.1527178 91.017937,10.4409448 87.728516,10.4409448 L53.507812,10.4409448 L49.060547,1.54641379 C48.721664,0.868851787 48.029067,0.440944787 47.271484,0.440944787 L15.716797,0.440944787 Z M15.716797,4.44094479 L46.035156,4.44094479 L50.482422,13.3354758 C50.821304,14.0130318 51.513901,14.4409968 52.271484,14.4409448 L87.728516,14.4409448 C88.871097,14.4409448 89.726562,15.2971838 89.726562,16.4409448 L89.726562,63.4409448 C89.726562,64.5847428 88.87112,65.4409448 87.728516,65.4409448 L84.283203,65.4409448 L84.283203,28.4409448 C84.283203,25.1515468 81.570664,22.4389918 78.28125,22.4389918 L44.066406,22.4389918 L39.615234,13.5444608 C39.275352,12.8704318 38.584952,12.4451628 37.830078,12.4448508 L13.716797,12.4448508 L13.716797,6.44094479 C13.716797,5.29835579 14.574195,4.44094479 15.716797,4.44094479 Z M6.2714844,16.4370388 L36.595703,16.4370388 L41.041016,25.3335228 C41.378723,26.0105868 42.069562,26.4391488 42.826172,26.4409448 L78.28125,26.4409448 C79.423835,26.4409448 80.283203,27.2983558 80.283203,28.4409448 L80.283203,75.4409448 C80.283203,76.5835718 79.423835,77.4409448 78.28125,77.4409448 L6.8320312,77.4409448 C5.6896033,77.4409448 4.8508253,76.5925618 4.8320312,75.4116478 L4.2714844,18.4389918 C4.2714844,17.2964408 5.1288973,16.4370388 6.2714844,16.4370388 Z" id="Shape"></path>
        </g>
    </g>
</svg>